# xmcd
#
# Track frame offsets:
#	150
#	14965
#	43865
#	61707
#	83417
#	102310
#	123975
#	141397
#	163605
#	181040
#	207732
#	232835
#	251547
#	267080
#	293722
#
# Disc length: 4121 seconds
#
# Revision: 0
# Processed by: cddbd v1.5.2PL0 Copyright (c) Steve Scherf et al.
# Submitted via: EasyCDDAExtractor 16.0.9.1
#
DISCID=d010170f
DTITLE=Various Artist - Hey DJ
DYEAR=1996
DGENRE=Dance
TTITLE0=2 Unlimited - Spread Your Love 
TTITLE1=Daisy Dee - Just Jump (Extended Mix)
TTITLE2=Pro-Gress - The House Of Pain (Club Mix)
TTITLE3=Babes and Dudes - Why Tell Me Why (Original Club Mix)
TTITLE4=R 2 Swing - Get Ready (Paris. New York. LA...)
TTITLE5=The R.I.P. - Say Yo!! (Extended Mix)
TTITLE6=Bravo - Macarena (Extravagantza Mix)
TTITLE7=3 Times 6 - I'm Gonna Make It (Video TV Mix)
TTITLE8=Plastico - Communicate (Original Mix)
TTITLE9=Den Harrow - Living For Your Love
TTITLE10=Lia Private - Fantasy 
TTITLE11=Zhi-Vago - Celebrate (The Love)
TTITLE12=Capital Sound feat. Rocko T. Bello - Feel The Rhythm 
TTITLE13=Mega 'Lo Mania - Close Your Eyes 
TTITLE14=Scooter - Back In The UK
EXTD=
EXTT0=
EXTT1=
EXTT2=
EXTT3=
EXTT4=
EXTT5=
EXTT6=
EXTT7=
EXTT8=
EXTT9=
EXTT10=
EXTT11=
EXTT12=
EXTT13=
EXTT14=
PLAYORDER=
